<?xml version="1.0" encoding="UTF-8"?>
<svg width="14px" height="17px" viewBox="0 0 14 17" version="1.1" xmlns="http://www.w3.org/2000/svg" xmlns:xlink="http://www.w3.org/1999/xlink">
    <!-- Generator: Sketch 51.3 (57544) - http://www.bohemiancoding.com/sketch -->
    <title>notifications</title>
    <desc>Created with Sketch.</desc>
    <defs>
        <path d="M10,18.8203125 C9.53124766,18.8203125 9.14062656,18.6640641 8.828125,18.3515625 C8.51562344,18.0390609 8.3463543,17.6484398 8.3203125,17.1796875 L11.6796875,17.1796875 C11.6536457,17.6484398 11.4843766,18.0390609 11.171875,18.3515625 C10.8593734,18.6640641 10.4687523,18.8203125 10,18.8203125 Z M15,13.8203125 L16.6796875,15.5 L16.6796875,16.3203125 L3.3203125,16.3203125 L3.3203125,15.5 L5,13.8203125 L5,9.6796875 C5,8.35155586 5.32551758,7.21875469 5.9765625,6.28125 C6.62760742,5.34374531 7.55207734,4.71875156 8.75,4.40625 L8.75,3.8203125 C8.75,3.48176914 8.86718633,3.19531367 9.1015625,2.9609375 C9.33593867,2.72656133 9.63541484,2.609375 10,2.609375 C10.3645852,2.609375 10.6640613,2.72656133 10.8984375,2.9609375 C11.1328137,3.19531367 11.25,3.48176914 11.25,3.8203125 L11.25,4.40625 C12.4479227,4.71875156 13.3723926,5.35025566 14.0234375,6.30078125 C14.6744824,7.25130684 15,8.37759766 15,9.6796875 L15,13.8203125 Z" id="path-1"></path>
    </defs>
    <g id="Page-1" stroke="none" stroke-width="1" fill="none" fill-rule="evenodd">
        <g id="notifications" transform="translate(-3.000000, -2.000000)">
            <g id="">
                <use fill="#000000" xlink:href="#path-1"></use>
                <use fill="#FFFFFF" xlink:href="#path-1"></use>
            </g>
        </g>
    </g>
</svg>