<?xml version="1.0" encoding="UTF-8"?>
<svg width="16px" height="17px" viewBox="0 0 16 17" version="1.1" xmlns="http://www.w3.org/2000/svg" xmlns:xlink="http://www.w3.org/1999/xlink">
    <!-- Generator: Sketch 51.3 (57544) - http://www.bohemiancoding.com/sketch -->
    <title>tasks</title>
    <desc>Created with Sketch.</desc>
    <defs>
        <path d="M8.3203125,14.6796875 L15,8 L13.828125,6.828125 L8.3203125,12.296875 L6.171875,10.1484375 L5,11.3203125 L8.3203125,14.6796875 Z M10,3 C9.76562383,3 9.57031328,3.07812422 9.4140625,3.234375 C9.25781172,3.39062578 9.1796875,3.58593633 9.1796875,3.8203125 C9.1796875,4.05468867 9.25781172,4.24999922 9.4140625,4.40625 C9.57031328,4.56250078 9.76562383,4.640625 10,4.640625 C10.2343762,4.640625 10.4296867,4.56250078 10.5859375,4.40625 C10.7421883,4.24999922 10.8203125,4.05468867 10.8203125,3.8203125 C10.8203125,3.58593633 10.7421883,3.39062578 10.5859375,3.234375 C10.4296867,3.07812422 10.2343762,3 10,3 Z M15.8203125,3 C16.2890648,3 16.6861963,3.16275879 17.0117188,3.48828125 C17.3372412,3.81380371 17.5,4.21093516 17.5,4.6796875 L17.5,16.3203125 C17.5,16.7890648 17.3372412,17.1861963 17.0117188,17.5117188 C16.6861963,17.8372412 16.2890648,18 15.8203125,18 L4.1796875,18 C3.71093516,18 3.31380371,17.8372412 2.98828125,17.5117188 C2.66275879,17.1861963 2.5,16.7890648 2.5,16.3203125 L2.5,4.6796875 C2.5,4.21093516 2.66275879,3.81380371 2.98828125,3.48828125 C3.31380371,3.16275879 3.71093516,3 4.1796875,3 L7.65625,3 C7.83854258,2.50520586 8.13801875,2.10807441 8.5546875,1.80859375 C8.97135625,1.50911309 9.45312227,1.359375 10,1.359375 C10.5468777,1.359375 11.0286438,1.50911309 11.4453125,1.80859375 C11.8619812,2.10807441 12.1614574,2.50520586 12.34375,3 L15.8203125,3 Z" id="path-1"></path>
    </defs>
    <g id="Page-1" stroke="none" stroke-width="1" fill="none" fill-rule="evenodd">
        <g id="tasks" transform="translate(-2.000000, -1.000000)">
            <g id="">
                <use fill="#000000" xlink:href="#path-1"></use>
                <use fill="#FFFFFF" xlink:href="#path-1"></use>
            </g>
        </g>
    </g>
</svg>